<svg width="115" height="67" viewBox="0 0 115 67" fill="none" xmlns="http://www.w3.org/2000/svg">
<g clip-path="url(#clip0_173_3)">
<path d="M73.4658 25.7887C73.4629 26.2254 73.2881 26.6434 72.9793 26.9522C72.6705 27.261 72.2525 27.4358 71.8158 27.4387H65.1633C64.7265 27.4363 64.3082 27.2617 63.9993 26.9528C63.6904 26.6439 63.5158 26.2256 63.5133 25.7887C63.5162 25.3521 63.691 24.9341 63.9998 24.6253C64.3086 24.3165 64.7266 24.1417 65.1633 24.1387H71.8158C72.2522 24.1427 72.6696 24.3178 72.9782 24.6263C73.2868 24.9349 73.4619 25.3524 73.4658 25.7887ZM50.2608 25.7887C50.2583 26.2256 50.0837 26.6439 49.7748 26.9528C49.4659 27.2617 49.0476 27.4363 48.6108 27.4387H41.9583C41.5215 27.4363 41.1032 27.2617 40.7943 26.9528C40.4854 26.6439 40.3108 26.2256 40.3083 25.7887C40.3113 25.3521 40.486 24.9341 40.7948 24.6253C41.1036 24.3165 41.5216 24.1417 41.9583 24.1387H48.6108C49.0472 24.1422 49.4647 24.3172 49.7731 24.6259C50.0815 24.9347 50.256 25.3524 50.2589 25.7887H50.2608ZM46.8108 10.4756H68.1933L70.8164 17.1544C70.7752 17.1544 70.7339 17.1469 70.6871 17.1469H44.1858L46.8108 10.4756ZM79.9608 15.5494C79.8523 14.8981 79.49 14.3164 78.9533 13.9319C78.4166 13.5473 77.7492 13.3914 77.0977 13.4981L77.1127 13.4962L73.0196 14.1637C72.9595 14.175 72.9006 14.1913 72.8433 14.2125L72.8527 14.2087L70.2164 7.5H44.7802L42.1439 14.2087C42.0907 14.1904 42.0362 14.176 41.9808 14.1656L37.8839 13.4962C37.2365 13.3946 36.575 13.5515 36.0422 13.9331C35.5094 14.3147 35.1479 14.8905 35.0358 15.5362L35.0339 15.5512C34.9318 16.1988 35.0885 16.8605 35.4702 17.3934C35.8519 17.9264 36.428 18.2877 37.0739 18.3994L37.0889 18.4012L39.4721 18.7931C37.9592 20.2453 37.0828 22.2373 37.0346 24.3337V35.7544H45.2846V31.4419H68.5889V35.7544H76.8389V29.6644C76.8727 29.5219 76.8914 29.3587 76.8914 29.19V24.3412C76.8458 22.3201 76.0327 20.3921 74.617 18.9487L74.6189 18.9506L77.9302 18.4069C78.581 18.298 79.1621 17.9354 79.5459 17.3987C79.9298 16.8619 80.085 16.1948 79.9777 15.5437L79.9796 15.5588L79.9608 15.5494Z" fill="white"/>
</g>
<path d="M5.26123 44.2266V62H1.59912V44.2266H5.26123ZM15.7349 44.2266L8.92334 54.6636H4.44336L3.97949 51.4043H6.97021L11.2915 44.2266H15.7349ZM11.9629 62L6.98242 54.0532L9.52148 51.4409L16.3086 62H11.9629ZM32.2266 44.2266V62H28.5645V47.0952H21.4233V62H17.7612V44.2266H32.2266ZM49.9023 44.2266V62H46.2402V47.0952H39.0991V62H35.437V44.2266H49.9023ZM59.8145 52.9912V55.75H52.9175V52.9912H59.8145ZM77.063 59.1436V62H64.2578V59.1436H77.063ZM65.3442 59.1436V66.3579H61.9019L61.7065 59.1436H65.3442ZM79.6997 59.1436L79.3823 66.3701H76.0254V59.1436H79.6997ZM75.0488 44.2266V47.0952H66.4917V44.2266H75.0488ZM77.6611 44.2266V62H74.0112V44.2266H77.6611ZM66.04 44.2266H69.7021L69.2261 51.4653C69.1528 52.6616 69.0226 53.7196 68.8354 54.6392C68.6564 55.5506 68.4367 56.3522 68.1763 57.0439C67.924 57.7357 67.6432 58.342 67.334 58.8628C67.0247 59.3755 66.6992 59.8231 66.3574 60.2056C66.0156 60.5799 65.6698 60.9136 65.3198 61.2065C64.9699 61.4914 64.6281 61.7559 64.2944 62H62.1948V59.1436H63.0127C63.2487 58.9482 63.4969 58.6797 63.7573 58.3379C64.0259 57.9961 64.2782 57.5363 64.5142 56.9585C64.7583 56.3726 64.9699 55.632 65.1489 54.7368C65.3361 53.8416 65.4744 52.7511 65.564 51.4653L66.04 44.2266ZM88.5498 54.1997H83.9844L83.96 51.6851H87.793C88.4684 51.6851 89.0218 51.5996 89.4531 51.4287C89.8844 51.2497 90.2059 50.9933 90.4175 50.6597C90.6372 50.3179 90.7471 49.9028 90.7471 49.4146C90.7471 48.8612 90.6413 48.4136 90.4297 48.0718C90.2262 47.73 89.9048 47.4818 89.4653 47.3271C89.034 47.1725 88.4766 47.0952 87.793 47.0952H85.2539V62H81.5918V44.2266H87.793C88.8265 44.2266 89.7502 44.3242 90.564 44.5195C91.3859 44.7148 92.0817 45.0119 92.6514 45.4106C93.221 45.8094 93.6564 46.314 93.9575 46.9243C94.2586 47.5265 94.4092 48.2427 94.4092 49.0728C94.4092 49.8052 94.2424 50.4806 93.9087 51.0991C93.5832 51.7176 93.0664 52.2222 92.3584 52.6128C91.6585 53.0034 90.743 53.2191 89.6118 53.2598L88.5498 54.1997ZM88.3911 62H82.9834L84.4116 59.1436H88.3911C89.034 59.1436 89.5589 59.0418 89.9658 58.8384C90.3727 58.6268 90.6738 58.342 90.8691 57.9839C91.0645 57.6258 91.1621 57.2148 91.1621 56.751C91.1621 56.2301 91.0726 55.7785 90.8936 55.396C90.7227 55.0135 90.446 54.7205 90.0635 54.5171C89.681 54.3055 89.1764 54.1997 88.5498 54.1997H85.022L85.0464 51.6851H89.4409L90.2832 52.6738C91.3656 52.6576 92.2363 52.8488 92.8955 53.2476C93.5628 53.6382 94.047 54.1468 94.3481 54.7734C94.6574 55.4001 94.812 56.0715 94.812 56.7876C94.812 57.9269 94.5638 58.8872 94.0674 59.6685C93.571 60.4416 92.8426 61.0234 91.8823 61.4141C90.9302 61.8047 89.7664 62 88.3911 62ZM107.861 56.104H111.511C111.438 57.3003 111.108 58.3623 110.522 59.29C109.945 60.2178 109.135 60.9421 108.093 61.4629C107.06 61.9837 105.815 62.2441 104.358 62.2441C103.219 62.2441 102.197 62.0488 101.294 61.6582C100.391 61.2594 99.6175 60.6898 98.9746 59.9492C98.3398 59.2087 97.8556 58.3135 97.522 57.2637C97.1883 56.2139 97.0215 55.0379 97.0215 53.7358V52.5029C97.0215 51.2008 97.1924 50.0249 97.5342 48.9751C97.8841 47.9172 98.3805 47.0179 99.0234 46.2773C99.6745 45.5368 100.452 44.9671 101.355 44.5684C102.258 44.1696 103.267 43.9702 104.382 43.9702C105.863 43.9702 107.113 44.2388 108.13 44.7759C109.155 45.313 109.949 46.0535 110.51 46.9976C111.08 47.9416 111.422 49.0158 111.536 50.2202H107.874C107.833 49.5041 107.69 48.8978 107.446 48.4014C107.202 47.8968 106.832 47.5184 106.335 47.2661C105.847 47.0057 105.196 46.8755 104.382 46.8755C103.772 46.8755 103.239 46.9894 102.783 47.2173C102.327 47.4451 101.945 47.791 101.636 48.2549C101.326 48.7188 101.095 49.3047 100.94 50.0127C100.793 50.7126 100.72 51.5345 100.72 52.4785V53.7358C100.72 54.6554 100.789 55.4652 100.928 56.165C101.066 56.8568 101.278 57.4427 101.562 57.9229C101.855 58.3949 102.23 58.7529 102.686 58.9971C103.149 59.2331 103.707 59.3511 104.358 59.3511C105.123 59.3511 105.754 59.229 106.25 58.9849C106.746 58.7407 107.125 58.3786 107.385 57.8984C107.654 57.4183 107.812 56.8201 107.861 56.104Z" fill="white"/>
<defs>
<clipPath id="clip0_173_3">
<rect width="45" height="45" fill="white" transform="translate(35)"/>
</clipPath>
</defs>
</svg>
